<?xml version="1.0" encoding="utf-8"?><svg fill="none" viewBox="0 0 800 600" xmlns="http://www.w3.org/2000/svg"><defs /><g opacity="0" id="Shape3"><animate repeatCount="indefinite" attributeName="opacity" dur="1s" begin="0.5s" calcMode="spline" values="0; 1; 0" keyTimes="0; 0.5; 1" keySplines="0 0 1 1; 0 0 1 1" fill="freeze" /><g transform="translate(400.309,400)"><animateTransform repeatCount="indefinite" type="translate" attributeName="transform" dur="1.5s" begin="0s" calcMode="spline" values="400.309 400; 400.309 343; 400.309 243; 400.309 143" keyTimes="0; 0.333; 0.667; 1" keySplines="0 0 1 1; 0 0 1 1; 0 0 1 1" fill="freeze" /><g transform="rotate(90) scale(1,1) translate(-56.983,-102.57)"><g id="Shape3 Fill"><path fill="#4274b7" fill-opacity="1" d="M41.46,102.516L108.992,28.067C112.925,24.026,114.545,17.941,113.215,12.198C111.885,6.455,107.817,1.971,102.608,0.504C97.399,-0.963,91.878,0.823,88.213,5.159L0,102.408L22.641,127.368L88.507,199.98C92.172,204.316,97.693,206.102,102.902,204.635C108.111,203.168,112.179,198.684,113.509,192.941C114.839,187.198,113.22,181.114,109.287,177.073L41.46,102.516Z" /></g><g id="Shape3 Stroke"><path d="M41.46,102.516L108.992,28.067C112.925,24.026,114.545,17.941,113.215,12.198C111.885,6.455,107.817,1.971,102.608,0.504C97.399,-0.963,91.878,0.823,88.213,5.159L0,102.408L22.641,127.368L88.507,199.98C92.172,204.316,97.693,206.102,102.902,204.635C108.111,203.168,112.179,198.684,113.509,192.941C114.839,187.198,113.22,181.114,109.287,177.073L41.46,102.516Z" /></g></g></g></g><g opacity="0" id="Shape2"><animate repeatCount="indefinite" attributeName="opacity" dur="1s" begin="0s" calcMode="spline" values="0; 1; 0" keyTimes="0; 0.5; 1" keySplines="0 0 1 1; 0 0 1 1" fill="freeze" /><g transform="translate(401.309,357)"><animateTransform repeatCount="indefinite" type="translate" attributeName="transform" dur="1.5s" begin="0s" calcMode="spline" values="401.309 357; 401.309 243; 401.309 143; 401.309 400" keyTimes="0; 0.333; 0.667; 1" keySplines="0 0 1 1; 0 0 1 1; 0 0 1 1" fill="freeze" /><g transform="rotate(90) scale(1,1) translate(-56.983,-102.57)"><g id="Shape2 Fill"><path fill="#4274b7" fill-opacity="1" d="M41.46,102.516L108.992,28.067C112.925,24.026,114.545,17.941,113.215,12.198C111.885,6.455,107.817,1.971,102.608,0.504C97.399,-0.963,91.878,0.823,88.213,5.159L0,102.408L22.641,127.368L88.507,199.98C92.172,204.316,97.693,206.102,102.902,204.635C108.111,203.168,112.179,198.684,113.509,192.941C114.839,187.198,113.22,181.114,109.287,177.073L41.46,102.516Z" /></g><g id="Shape2 Stroke"><path d="M41.46,102.516L108.992,28.067C112.925,24.026,114.545,17.941,113.215,12.198C111.885,6.455,107.817,1.971,102.608,0.504C97.399,-0.963,91.878,0.823,88.213,5.159L0,102.408L22.641,127.368L88.507,199.98C92.172,204.316,97.693,206.102,102.902,204.635C108.111,203.168,112.179,198.684,113.509,192.941C114.839,187.198,113.22,181.114,109.287,177.073L41.46,102.516Z" /></g></g></g></g></svg>