<?xml version="1.0" encoding="utf-8"?><svg fill="none" viewBox="0 0 500 500" xmlns="http://www.w3.org/2000/svg"><defs /><g id="Ribbon 2"><g transform="translate(250,205)"><animateTransform repeatCount="indefinite" type="translate" attributeName="transform" dur="2.426s" begin="2.426s" calcMode="spline" values="250 205; 250 185; 250 225; 250 205" keyTimes="0; 0.333; 0.667; 1" keySplines="0.5 0 0.5 1; 0.5 0 0.5 1; 0.5 0 0.5 1" fill="freeze" /><g transform="rotate(0)"><animateTransform repeatCount="indefinite" type="rotate" attributeName="transform" dur="2.426s" begin="0s" calcMode="spline" values="0; -10; 10; 0" keyTimes="0; 0.333; 0.667; 1" keySplines="0.5 0 0.5 1; 0.5 0 0.5 1; 0.5 0 0.5 1" fill="freeze" /><g transform="scale(1,1) translate(-68.82,-0.25)"><g id="Group 1" transform="matrix(1,0,0,1,68.82,109.537)"><path fill="#66c4ff" fill-opacity="1" d="M-68.57,-109.287L-68.57,109.287L0,69.284L68.57,109.287L68.57,-109.287L-68.57,-109.287Z" /></g></g></g></g></g><g id="Ribbon 2"><g transform="translate(250,205)"><animateTransform repeatCount="indefinite" type="translate" attributeName="transform" dur="2.426s" begin="2.426s" calcMode="spline" values="250 205; 250 185; 250 225; 250 205" keyTimes="0; 0.333; 0.667; 1" keySplines="0.5 0 0.5 1; 0.5 0 0.5 1; 0.5 0 0.5 1" fill="freeze" /><g transform="rotate(0)"><animateTransform repeatCount="indefinite" type="rotate" attributeName="transform" dur="2.426s" begin="0s" calcMode="spline" values="0; -10; 10; 0" keyTimes="0; 0.333; 0.667; 1" keySplines="0.5 0 0.5 1; 0.5 0 0.5 1; 0.5 0 0.5 1" fill="freeze" /><g transform="scale(1,1) translate(-68.82,-0.25)"><g id="Ribbon 1"><g transform="translate(68.82,0.25)"><animateTransform repeatCount="indefinite" type="translate" attributeName="transform" dur="4.852s" begin="0.081s" calcMode="spline" values="68.82 0.25; 68.82 -30; 68.82 -30; 68.82 0.25; 68.82 -15; 68.82 15; 68.82 0.25" keyTimes="0; 0.167; 0.333; 0.5; 0.667; 0.842; 1" keySplines="0.5 0 0.5 1; 0 0 1 1; 0.5 0 0.5 1; 0.5 0 0.5 1; 0.5 0 0.5 1; 0.5 0 0.5 1" fill="freeze" /><g transform="scale(1,1) translate(-28.821,-0.25)"><g id="Group 1" transform="matrix(1,0,0,1,28.821,97.869)"><path fill="#4aa5cf" fill-opacity="1" d="M-28.571,-97.62L-28.571,97.62L0,80.952L28.571,97.62L28.571,-97.62L-28.571,-97.62Z" /></g></g></g></g></g></g></g></g><g id="Star"><g transform="translate(250,206.426)"><g transform="rotate(0)"><animateTransform repeatCount="indefinite" type="rotate" attributeName="transform" dur="2.426s" begin="2.426s" calcMode="spline" values="0; 45; -45; 0" keyTimes="0; 0.333; 0.667; 1" keySplines="0.5 0 0.5 1; 0.5 0 0.5 1; 0.5 0 0.5 1" fill="freeze" /><g transform="scale(1,1)"><animateTransform repeatCount="indefinite" type="scale" attributeName="transform" dur="2.426s" begin="0s" calcMode="spline" values="1 1; 0.95 0.95; 1.05 1.05; 1 1" keyTimes="0; 0.333; 0.667; 1" keySplines="0.5 0 0.5 1; 0.5 0 0.5 1; 0.5 0 0.5 1" fill="freeze" /><g transform="translate(-132.905,-132.905)"><g id="Group 1" transform="matrix(1,0,0,1,132.905,132.905)"><path fill="#ffba4d" fill-opacity="1" d="M100.307,36.334L127.738,8.902C132.655,3.985,132.655,-3.985,127.738,-8.901L100.307,-36.334C97.946,-38.695,96.619,-41.896,96.619,-45.235L96.619,-84.031C96.619,-90.983,90.984,-96.619,84.031,-96.619L45.235,-96.619C41.896,-96.619,38.694,-97.946,36.334,-100.306L8.902,-127.739C3.986,-132.655,-3.986,-132.655,-8.902,-127.739L-36.335,-100.306C-38.695,-97.946,-41.897,-96.619,-45.236,-96.619L-84.031,-96.619C-90.984,-96.619,-96.619,-90.983,-96.619,-84.031L-96.619,-45.235C-96.619,-41.896,-97.946,-38.695,-100.307,-36.334L-127.738,-8.901C-132.655,-3.985,-132.655,3.985,-127.738,8.902L-100.307,36.334C-97.946,38.695,-96.619,41.897,-96.619,45.235L-96.619,84.031C-96.619,90.983,-90.984,96.62,-84.031,96.62L-45.236,96.62C-41.897,96.62,-38.694,97.946,-36.333,100.307L-8.902,127.739C-3.986,132.655,3.986,132.655,8.902,127.739L36.333,100.307C38.694,97.946,41.896,96.62,45.235,96.62L84.031,96.62C90.984,96.62,96.619,90.983,96.619,84.031L96.619,45.235C96.619,41.897,97.946,38.695,100.307,36.334Z" /></g></g></g></g></g></g><g id="Star"><g transform="translate(250,206.426)"><g transform="rotate(0)"><animateTransform repeatCount="indefinite" type="rotate" attributeName="transform" dur="2.426s" begin="2.426s" calcMode="spline" values="0; 45; -45; 0" keyTimes="0; 0.333; 0.667; 1" keySplines="0.5 0 0.5 1; 0.5 0 0.5 1; 0.5 0 0.5 1" fill="freeze" /><g transform="scale(1,1)"><animateTransform repeatCount="indefinite" type="scale" attributeName="transform" dur="2.426s" begin="0s" calcMode="spline" values="1 1; 0.95 0.95; 1.05 1.05; 1 1" keyTimes="0; 0.333; 0.667; 1" keySplines="0.5 0 0.5 1; 0.5 0 0.5 1; 0.5 0 0.5 1" fill="freeze" /><g transform="translate(-132.905,-132.905)"><g id="Ellipse"><g transform="translate(132.906,132.905)"><g transform="scale(1,1)"><animateTransform repeatCount="indefinite" type="scale" attributeName="transform" dur="4.852s" begin="0.081s" calcMode="spline" values="1 1; 0.95 0.95; 1.05 1.05; 1 1; 0.95 0.95; 1.05 1.05; 1 1" keyTimes="0; 0.167; 0.333; 0.5; 0.667; 0.833; 1" keySplines="0.5 0 0.5 1; 0.5 0 0.5 1; 0.5 0 0.5 1; 0.5 0 0.5 1; 0.5 0 0.5 1; 0.5 0 0.5 1" fill="freeze" /><g transform="translate(-113.828,-113.828)"><g id="Group 1" transform="matrix(1,0,0,1,113.828,113.828)"><path stroke-linejoin="round" stroke-linecap="round" stroke-width="16" stroke-opacity="1" stroke="#ffdc69" fill="#ffba4d" fill-opacity="1" d="M73.828,0C73.828,40.774,40.774,73.828,0,73.828C-40.774,73.828,-73.828,40.774,-73.828,0C-73.828,-40.774,-40.774,-73.828,0,-73.828C40.774,-73.828,73.828,-40.774,73.828,0Z" /></g></g></g></g></g></g></g></g></g></g><g transform="matrix(1,0,0,1,190.859,130.712)" id="One"><g id="Group 2"><path stroke-linejoin="miter" stroke-linecap="butt" stroke-width="16" stroke-opacity="1" stroke="#f05e56" d="M78.281,111.427L40,111.427" /></g><g id="Group 1" transform="matrix(1,0,0,1,49.57,75.714)"><path stroke-linejoin="miter" stroke-linecap="butt" stroke-width="16" stroke-opacity="1" stroke="#f05e56" d="M-9.57,-35.714L9.57,-35.714L9.57,35.714" /></g></g></svg>