<?xml version="1.0" encoding="utf-8"?><svg fill="none" viewBox="0 0 800 800" xmlns="http://www.w3.org/2000/svg"><defs /><g opacity="0" visibility="hidden" id="c4"><animate repeatCount="indefinite" begin="1.068s" calcMode="discrete" fill="freeze" dur="2.603s" values="visible; hidden" keyTimes="0; 1" attributeName="visibility" /><animate repeatCount="indefinite" attributeName="opacity" dur="1.4681348245720443s" begin="0.5672338774633249s" calcMode="spline" values="0; 1; 1; 0" keyTimes="0; 0.182; 0.341; 1" keySplines="0.167 0 0.667 1; 0.333 0 0.667 1; 0.531 0.001 0.452 1.003" fill="freeze" /><g transform="translate(400,400)"><g transform="scale(1,1)"><animateTransform repeatCount="indefinite" type="scale" attributeName="transform" dur="1.101s" begin="1.068s" calcMode="spline" values="1 1; 1.93 1.93" keyTimes="0; 1" keySplines="0.333 0 0.667 1" fill="freeze" /><g transform="translate(-200,-200)"><g id="Group 2" transform="matrix(1,0,0,1,199.999,199.996)"><path fill="#ace0f1" fill-opacity="1" d="M-124.205,0.001C-124.205,-68.595,-68.598,-124.204,-0.001,-124.204C68.598,-124.204,124.205,-68.595,124.205,0.001C124.205,68.597,68.598,124.204,-0.001,124.204C-68.598,124.204,-124.205,68.597,-124.205,0.001Z" /></g></g></g></g></g><g opacity="1" visibility="hidden" id="c3"><animate repeatCount="indefinite" begin="2.436s" calcMode="discrete" fill="freeze" dur="3.003s" values="visible; visible" keyTimes="0; 1" attributeName="visibility" /><animate repeatCount="indefinite" attributeName="opacity" dur="0.6673341270592981s" begin="3.1031029767111304s" calcMode="spline" values="1; 0" keyTimes="0; 1" keySplines="0.531 -0.014 0.461 0.999" fill="freeze" /><g transform="translate(400,400)"><g transform="scale(1,1)"><animateTransform repeatCount="indefinite" type="scale" attributeName="transform" dur="0.667s" begin="3.103s" calcMode="spline" values="1 1; 1.93 1.93" keyTimes="0; 1" keySplines="0 0 1 1" fill="freeze" /><g transform="translate(-200,-200)"><g id="Group 2" transform="matrix(1,0,0,1,199.999,199.996)"><path fill="#ace0f1" fill-opacity="1" d="M-124.205,0.001C-124.205,-68.595,-68.598,-124.204,-0.001,-124.204C68.598,-124.204,124.205,-68.595,124.205,0.001C124.205,68.597,68.598,124.204,-0.001,124.204C-68.598,124.204,-124.205,68.597,-124.205,0.001Z" /></g></g></g></g></g><g opacity="0" visibility="hidden" id="c2"><animate repeatCount="indefinite" begin="0.701s" calcMode="discrete" fill="freeze" dur="3.337s" values="visible; visible" keyTimes="0; 1" attributeName="visibility" /><animate repeatCount="indefinite" attributeName="opacity" dur="3.269936631810051s" begin="0.7007006721605779s" calcMode="spline" values="0; 0.3; 0.3; 0" keyTimes="0; 0.082; 0.939; 1" keySplines="0.167 0 0.667 1; 0.167 0 0.833 1; 0.167 0 0.833 1" fill="freeze" /><g transform="translate(400,400) scale(1,1) translate(-200,-200)"><g id="Group 3" transform="matrix(1,0,0,1,200,199.998)"><path fill="#ace0f1" fill-opacity="1" d="M-150.845,-0.001C-150.845,-83.308,-83.314,-150.844,-0.002,-150.844C83.304,-150.844,150.845,-83.308,150.845,-0.001C150.845,83.311,83.304,150.845,-0.002,150.845C-83.314,150.845,-150.845,83.311,-150.845,-0.001Z" /></g></g></g><g opacity="0" visibility="hidden" id="c1"><animate repeatCount="indefinite" begin="0.701s" calcMode="discrete" fill="freeze" dur="3.337s" values="visible; visible" keyTimes="0; 1" attributeName="visibility" /><animate repeatCount="indefinite" attributeName="opacity" dur="3.269936631810051s" begin="0.7007006721605779s" calcMode="spline" values="0; 1; 1; 0" keyTimes="0; 0.082; 0.939; 1" keySplines="0.167 0 0.667 1; 0.167 0 0.833 1; 0.167 0 0.833 1" fill="freeze" /><g transform="translate(400,400) scale(1,1) translate(-200,-200)"><g id="Group 2" transform="matrix(1,0,0,1,199.999,199.996)"><path fill="#1c8adb" fill-opacity="1" d="M-124.205,0.001C-124.205,-68.595,-68.598,-124.204,-0.001,-124.204C68.598,-124.204,124.205,-68.595,124.205,0.001C124.205,68.597,68.598,124.204,-0.001,124.204C-68.598,124.204,-124.205,68.597,-124.205,0.001Z" /></g></g></g><g opacity="1" id="Telegram Outlines"><animate repeatCount="indefinite" begin="0s" calcMode="discrete" fill="freeze" dur="3.003s" values="visible; hidden" keyTimes="0; 1" attributeName="visibility" /><animate repeatCount="indefinite" attributeName="opacity" dur="3.269936631810051s" begin="0.7007006721605779s" calcMode="spline" values="1; 0; 0; 0" keyTimes="0; 0.112; 0.939; 1" keySplines="0.333 0 0.667 1; 0.333 0 0.833 1; 0.167 0 0.833 1" fill="freeze" /><g transform="translate(395,413) scale(1,1) translate(-200,-200)"><g id="Group 2" transform="matrix(1,0,0,1,206,187.661)"><path stroke-linejoin="miter" stroke-linecap="butt" stroke-width="4" stroke-opacity="1" stroke="#126198" d="M0.001,122.778C-67.809,122.778,-122.779,67.812,-122.779,0.001C-122.779,-67.809,-67.809,-122.778,0.001,-122.778C67.811,-122.778,122.779,-67.809,122.779,0.001C122.779,67.812,67.811,122.778,0.001,122.778Z" /></g><g id="Group 3" transform="matrix(1,0,0,1,206,187.661)"><path stroke-linejoin="miter" stroke-linecap="butt" stroke-width="4" stroke-opacity="1" stroke="#126198" d="M0,149.114C-82.353,149.114,-149.112,82.35,-149.112,0.001C-149.112,-82.347,-82.353,-149.114,0,-149.114C82.353,-149.114,149.112,-82.347,149.112,0.001C149.112,82.35,82.353,149.114,0,149.114Z" /></g></g></g><g opacity="0" visibility="hidden" id="Phone 3"><animate repeatCount="indefinite" begin="0.1s" calcMode="discrete" fill="freeze" dur="3.904s" values="visible; visible" keyTimes="0; 1" attributeName="visibility" /><animate repeatCount="indefinite" attributeName="opacity" dur="2.60260263929706s" begin="0.9009008642064572s" calcMode="spline" values="0; 1; 1; 0" keyTimes="0; 0.128; 0.846; 1" keySplines="0 0 1 1; 0.167 0 0.833 1; 0.167 0 0.833 1" fill="freeze" /><g transform="translate(280,550)"><animateTransform repeatCount="indefinite" type="translate" attributeName="transform" dur="2.703s" begin="0.901s" calcMode="spline" values="280 550; 397 400; 397 400; 525 239" keyTimes="0; 0.123; 0.815; 1" keySplines="0 0 1 1; 0 0 1 1; 0.167 0 1 1" fill="freeze" /><g transform="rotate(-10)"><animateTransform repeatCount="indefinite" type="rotate" attributeName="transform" dur="1.101s" begin="1.668s" calcMode="spline" values="-10; 10; -10; 10; 0; -10; 10; -10; 10; 0; -10; 10; -10; 10; 0" keyTimes="0; 0.061; 0.121; 0.182; 0.242; 0.394; 0.455; 0.515; 0.576; 0.636; 0.758; 0.818; 0.879; 0.939; 1" keySplines="0 0 1 1; 0 0 1 1; 0 0 1 1; 0 0 1 1; 0 0 1 1; 0 0 1 1; 0 0 1 1; 0 0 1 1; 0 0 1 1; 0 0 1 1; 0 0 1 1; 0 0 1 1; 0 0 1 1; 0 0 1 1" fill="freeze" /><g transform="scale(0.12,0.12)"><animateTransform repeatCount="indefinite" type="scale" attributeName="transform" dur="2.703s" begin="0.901s" calcMode="spline" values="0.12 0.12; 1 1; 1 1; 0.29 0.29" keyTimes="0; 0.123; 0.815; 1" keySplines="0 0 1 1; 0.167 0 0.833 1; 0.167 0 0.833 1" fill="freeze" /><g transform="translate(0,0)"><g id="Forma 1"><path stroke-linejoin="miter" stroke-linecap="butt" stroke-width="0" stroke-opacity="1" stroke="#000000" fill="#ffffff" fill-opacity="1" d="M-36.5,-65.25C-36.5,-65.25,-46.5,-73,-56.75,-63.5C-67,-54,-72.5,-47.75,-72.5,-47.75C-72.5,-47.75,-82.25,-33.75,-69.5,-12.5C-56.75,8.75,-51.5,28.5,-3.75,63.25C44,98,3.25,68,3.25,68C3.25,68,34.25,96.25,58.5,72.75C82.75,49.25,71,59.25,71,59.25C71,59.25,79.75,51.25,66.25,37.25C52.75,23.25,48.25,20.25,48.25,20.25C48.25,20.25,37,8.75,28.5,20.75C20,32.75,18.75,44.25,-10,22.75C-38.75,1.25,-31.25,-18.5,-17.25,-21.25C-3.25,-24,-10.25,-40.5,-18.75,-48.5C-27.25,-56.5,-36.5,-65.25,-36.5,-65.25Z" /></g></g></g></g></g></g></svg>