<svg width="820" height="200" viewBox="0 0 820 200" fill="none" xmlns="http://www.w3.org/2000/svg">
<g clip-path="url(#clip0_104_49)">
<rect width="820" height="200" fill="white"/>
<rect x="-51.5889" y="137.796" width="87.9694" height="87.9694" rx="15" transform="rotate(-45 -51.5889 137.796)" fill="#808080" fill-opacity="0.25"/>
<rect x="-64" y="16.9477" width="127.205" height="127.205" rx="15" transform="rotate(-45 -64 16.9477)" fill="#808080" fill-opacity="0.5"/>
<rect x="93.397" y="7.78842" width="63.095" height="63.095" rx="15" transform="rotate(-45 93.397 7.78842)" fill="#808080"/>
<rect x="114.043" y="-3.94597" width="76.9718" height="76.9718" rx="15" transform="rotate(-45 114.043 -3.94597)" fill="#808080" fill-opacity="0.25"/>
<rect x="-12.3242" y="2.11996" width="87.9694" height="87.9694" rx="15" transform="rotate(-45 -12.3242 2.11996)" fill="#003D80"/>
<rect x="-52.2969" y="101.012" width="82.9516" height="82.9516" rx="15" transform="rotate(-45 -52.2969 101.012)" fill="#007AFF" fill-opacity="0.75"/>
<rect x="87.5757" y="-8.76913" width="63.095" height="63.095" rx="15" transform="rotate(-45 87.5757 -8.76913)" fill="#007AFF" fill-opacity="0.75"/>
<rect x="62.1836" y="6.29828" width="41.5674" height="41.5674" rx="15" transform="rotate(-45 62.1836 6.29828)" fill="#80BDFF" fill-opacity="0.75"/>
</g>
<defs>
<clipPath id="clip0_104_49">
<rect width="820" height="200" fill="white"/>
</clipPath>
</defs>
</svg>
